HIERARCHY
ROOT root     
{
	OFFSET 0.0000 0.0000 0.0000
	CHANNELS 6 Xposition Yposition Zposition Zrotation Yrotation Xrotation
	JOINT pelvis   
	{
		OFFSET 0.0000 0.0000 0.0000
		CHANNELS 3 Zrotation Yrotation Xrotation
		JOINT thorax   
		{
			OFFSET 0.0000 23.0750 -5.0000
			CHANNELS 3 Zrotation Yrotation Xrotation
			JOINT rclavicle
			{
				OFFSET 0.0000 28.0009 0.0000
				CHANNELS 3 Zrotation Yrotation Xrotation
				JOINT rhumerus 
				{
					OFFSET -18.5725 5.5939 0.0000
					CHANNELS 3 Zrotation Yrotation Xrotation
					JOINT rradius  
					{
						OFFSET -24.8459 0.0000 0.0000
						CHANNELS 3 Zrotation Yrotation Xrotation
						JOINT rhand    
						{
							OFFSET -24.5477 0.0000 0.0000
							CHANNELS 3 Zrotation Yrotation Xrotation
							End Site
							{
								OFFSET -8.1826 0.0000 0.0000
							}
						}
					}
				}
			}
			JOINT lclavicle
			{
				OFFSET 0.0000 28.0009 0.0000
				CHANNELS 3 Zrotation Yrotation Xrotation
				JOINT lhumerus 
				{
					OFFSET 18.5725 5.5939 0.0000
					CHANNELS 3 Zrotation Yrotation Xrotation
					JOINT lradius  
					{
						OFFSET 24.8459 0.0000 0.0000
						CHANNELS 3 Zrotation Yrotation Xrotation
						JOINT lhand    
						{
							OFFSET 24.5477 0.0000 0.0000
							CHANNELS 3 Zrotation Yrotation Xrotation
							End Site
							{
								OFFSET 8.1826 0.0000 0.0000
							}
						}
					}
				}
			}
			JOINT head     
			{
				OFFSET 0.0000 35.2030 0.0000
				CHANNELS 3 Zrotation Yrotation Xrotation
				End Site
				{
					OFFSET 0.0000 11.7343 0.0000
				}
			}
		}
		JOINT rfemur   
		{
			OFFSET -8.2817 0.0000 0.0000
			CHANNELS 3 Zrotation Yrotation Xrotation
			JOINT rtibia   
			{
				OFFSET 0.0000 -43.3627 0.0000
				CHANNELS 3 Zrotation Yrotation Xrotation
				JOINT rfoot    
				{
					OFFSET 0.0000 -38.2947 0.0000
					CHANNELS 3 Zrotation Yrotation Xrotation
					JOINT rtoes    
					{
						OFFSET 0.0000 0.0000 16.6054
						CHANNELS 3 Zrotation Yrotation Xrotation
						End Site
						{
							OFFSET 0.0000 0.0000 5.5351
						}
					}
				}
			}
		}
		JOINT lfemur   
		{
			OFFSET 8.2817 0.0000 0.0000
			CHANNELS 3 Zrotation Yrotation Xrotation
			JOINT ltibia   
			{
				OFFSET 0.0000 -43.3627 0.0000
				CHANNELS 3 Zrotation Yrotation Xrotation
				JOINT lfoot    
				{
					OFFSET 0.0000 -38.2947 0.0000
					CHANNELS 3 Zrotation Yrotation Xrotation
					JOINT ltoes    
					{
						OFFSET 0.0000 0.0000 16.6054
						CHANNELS 3 Zrotation Yrotation Xrotation
						End Site
						{
							OFFSET 0.0000 0.0000 5.5351
						}
					}
				}
			}
		}
	}
}
MOTION
Frames: 21
Frame Time: .0333333
-41.546 77.892 5.2307 -150.546 -88.3317 170.629 0 -0 0 8.07754 -10.2271 15.6676 24.7085 -12.1844 0.000137059 51.8936 -6.56561 -8.22998 -0 63.7063 -0 -2.52516 4.68788 -0.103402 -16.5282 14.7184 2.6137e-06 -52.4916 7.3515 5.5349 0 -72.6874 0 -0.940403 3.56987 -0.0292999 4.56808 1.91657 -23.0769 8.96748 -5.38871 -53.0333 -0 -0 53.1942 5.15204e-06 -5.40063 -10.6948 -178.995 -1.76849e-07 -3.16063 1.22785 11.0868 -16.0851 -0 -0 63.627 -4.09707e-06 8.32814 6.99096 1.02069 -2.96907e-06 -45.2222 
-42.126 78.066 5.1152 -152.059 -88.3528 172.314 0 -0 0 8.11327 -9.92881 15.7511 24.7063 -11.8728 -3.87401e-05 52.2089 -5.79155 -8.49058 -8.22211e-07 63.854 -5.12322e-07 -2.8929 4.8283 -0.122001 -16.5274 14.6215 3.96141e-05 -52.5698 7.55723 6.16549 -1.11254e-06 -71.905 8.06889e-07 -1.0798 3.56627 -0.0335999 4.77073 1.76048 -22.8409 8.9891 -5.42911 -52.5875 -0 -0 52.891 2.89534e-06 -5.36091 -10.9595 -178.978 -6.77465e-08 -3.05007 1.19468 11.1553 -17.1241 -0 -0 64.7592 1.08691e-06 9.31285 6.84397 1.11949 -8.03974e-07 -42.3213 
-42.699 78.243 5.0029 -153.797 -88.3508 174.206 0 -0 0 8.12435 -9.62054 15.8279 24.694 -11.5724 -7.79226e-05 52.5139 -5.00526 -8.67395 -5.1609e-07 64.0035 -8.25877e-07 -3.26319 4.97946 -0.141899 -16.5128 14.5302 -0.000131256 -52.6656 7.75327 6.7861 7.65926e-07 -71.0912 -1.07195e-06 -1.18847 3.56268 -0.036999 4.95936 1.6085 -22.5592 8.99474 -5.46776 -52.1391 -0 -0 52.5776 -2.7807e-06 -5.3218 -11.1742 -178.966 -7.49612e-07 -2.86964 1.13611 11.2225 -18.2103 -0 -0 65.855 6.7906e-06 10.3924 6.456 1.1813 5.77312e-07 -39.7084 
-43.265 78.421 4.8938 -155.732 -88.3409 176.29 0 -0 0 8.11561 -9.30381 15.8938 24.6652 -11.2836 -5.15454e-05 52.8111 -4.21398 -8.7793 -7.35632e-07 64.162 -1.17359e-06 -3.62858 5.13867 -0.162904 -16.4858 14.4468 -1.45908e-06 -52.7755 7.94183 7.39386 0 -70.2621 0 -1.26453 3.55993 -0.039301 5.12602 1.46179 -22.2397 8.98416 -5.49883 -51.6917 -0 -0 52.2571 4.43019e-06 -5.29052 -11.3479 -178.956 2.07182e-08 -2.65521 1.05529 11.2815 -19.3451 -0 -0 66.8992 -3.02709e-06 11.5166 5.8786 1.1955 6.38561e-06 -37.5458 
-43.825 78.6 4.7881 -157.89 -88.3448 178.599 0 -0 0 8.08782 -8.97998 15.9489 24.6188 -11.0059 -4.49299e-05 53.1004 -3.42671 -8.8067 -0 64.339 -0 -3.98016 5.30212 -0.184398 -16.4525 14.374 -9.00439e-05 -52.8968 8.12675 7.9852 0 -69.4159 0 -1.30816 3.5584 -0.0406021 5.2662 1.32066 -21.8933 8.95732 -5.51966 -51.2513 -0 -0 51.9359 -3.32524e-05 -5.27135 -11.4929 -178.947 -1.13766e-07 -2.44579 0.953412 11.3264 -20.5287 -0 -0 67.8828 3.78786e-05 12.6272 5.14571 1.15101 2.70608e-06 -35.7158 
-44.377 78.779 4.686 -160.244 -88.359 -178.89 0 -0 0 8.04227 -8.65007 15.9917 24.552 -10.7386 -6.01241e-06 53.3839 -2.65229 -8.75679 -0 64.5508 -0 -4.30968 5.4655 -0.205798 -16.4153 14.3114 -2.75961e-05 -53.0236 8.31134 8.55828 0 -68.5666 0 -1.32158 3.55794 -0.0409989 5.37904 1.18472 -21.5323 8.91641 -5.5298 -50.8198 -0 -0 51.6134 -1.8833e-05 -5.2676 -11.6242 -178.936 -7.11912e-07 -2.27386 0.832949 11.352 -21.7611 -0 -0 68.801 4.44827e-06 13.667 4.3035 1.0453 -7.013e-08 -34.1739 
-44.922 78.956 4.5871 -162.766 -88.3406 -176.223 0 -0 0 7.97905 -8.31536 16.0236 24.4626 -10.482 -1.79376e-05 53.6606 -1.899 -8.63061 -7.59981e-07 64.8058 -1.1974e-06 -4.60867 5.62462 -0.226499 -16.3761 14.2593 0.000152015 -53.1549 8.49917 9.11162 -9.35007e-07 -67.7184 6.27347e-07 -1.30874 3.55863 -0.0407017 5.46621 1.05199 -21.1635 8.86428 -5.53077 -50.3959 -0 -0 51.2908 -1.13042e-06 -5.28021 -11.7545 -178.921 5.56502e-07 -2.16141 0.696991 11.3529 -23.0426 -0 -0 69.65 1.80523e-05 14.5874 3.40069 0.884415 -5.22709e-06 -32.8777 
-45.462 79.132 4.4918 -165.547 -88.323 -173.3 0 -0 0 7.89343 -7.97504 16.0515 24.3523 -10.2373 1.23546e-05 53.9317 -1.17206 -8.43212 -0 65.1126 -0 -4.86693 5.77551 -0.245703 -16.3353 14.219 5.01451e-05 -53.2865 8.69336 9.64474 5.99272e-07 -66.8876 -9.07362e-07 -1.27531 3.5597 -0.0396 5.53339 0.920205 -20.7998 8.80059 -5.52735 -49.9741 -0 -0 50.9668 -3.23406e-05 -5.30567 -11.8955 -178.903 -1.93052e-07 -2.12327 0.545024 11.3263 -24.3647 -0 -0 70.4208 1.7284e-05 15.3486 2.48272 0.6812 -4.31552e-06 -31.7694 
-45.994 79.304 4.3986 -168.306 -88.3094 -170.393 0 -0 0 7.79483 -7.63187 16.0625 24.2191 -10.0058 -1.94094e-05 54.1961 -0.481055 -8.16152 -5.56323e-07 65.48 -8.65226e-07 -5.08302 5.91365 -0.262702 -16.2964 14.188 2.8582e-05 -53.4111 8.89888 10.1612 -8.82342e-07 -66.0709 5.73781e-07 -1.22265 3.55935 -0.0379992 5.58453 0.785422 -20.4442 8.73346 -5.51899 -49.5609 -0 -0 50.6376 2.42714e-05 -5.34713 -12.0515 -178.88 4.14959e-07 -2.14342 0.384776 11.2653 -25.737 -0 -0 71.1215 3.05949e-06 15.9248 1.59012 0.453607 -2.3426e-06 -30.833 
-46.521 79.473 4.3074 -171.182 -88.2957 -167.366 0 -0 0 7.68039 -7.28615 16.0611 24.0628 -9.7895 -1.7175e-06 54.4492 0.170403 -7.82213 -0 65.9103 -0 -5.25236 6.03661 -0.277097 -16.2553 14.1662 8.75285e-05 -53.5315 9.11781 10.6656 5.50613e-07 -65.2794 -8.59638e-07 -1.15493 3.55629 -0.0359007 5.62776 0.643965 -20.1028 8.66358 -5.50969 -49.1525 -0 -0 50.3024 -7.80785e-06 -5.40036 -12.2225 -178.854 -6.59314e-07 -2.21189 0.217079 11.1673 -27.1542 -0 -0 71.7493 3.10949e-06 16.3079 0.756299 0.221299 5.10906e-07 -30.0688 
-47.046 79.635 4.2192 -174.228 -88.2954 -164.173 0 -0 0 7.5401 -6.93537 16.0645 23.8876 -9.59084 1.44907e-05 54.6927 0.784103 -7.4226 -5.84019e-07 66.405 -8.92388e-07 -5.36385 6.14221 -0.288005 -16.2108 14.1502 8.41063e-05 -53.6438 9.35197 11.1528 0 -64.518 0 -1.08048 3.55093 -0.0334995 5.67243 0.493481 -19.7852 8.58611 -5.50597 -48.7339 -0 -0 49.9664 6.33642e-06 -5.45547 -12.4142 -178.824 4.73744e-07 -2.30979 0.0386553 11.0378 -28.5934 -0 -0 72.2971 5.94641e-09 16.502 -0.00569998 -0.00170004 -4.65895e-09 -29.3718 
-47.567 79.791 4.1325 -177.292 -88.2854 -160.966 0 -0 0 7.38588 -6.58369 16.0526 23.6933 -9.41133 -7.23186e-05 54.9202 1.3546 -6.96236 -8.5101e-07 66.9596 -1.28669e-06 -5.4272 6.22979 -0.295592 -16.1638 14.1425 0.000130547 -53.7475 9.60173 11.6384 0 -63.7877 0 -0.995483 3.54018 -0.030799 5.72213 0.33068 -19.4898 8.50787 -5.50522 -48.3176 -0 -0 49.6245 -2.20053e-06 -5.51549 -12.6166 -178.792 1.46586e-07 -2.40619 -0.143317 10.8694 -30.0669 -0 -0 72.7717 6.79407e-07 16.5266 -0.684404 -0.203094 7.03363e-07 -28.8153 
-48.089 79.94 4.049 179.454 -88.2251 -157.602 0 -0 0 7.2069 -6.22763 16.0519 23.4823 -9.25288 -4.70625e-05 55.1307 1.88816 -6.4541 -9.30019e-07 67.5771 -6.22303e-07 -5.43266 6.29841 -0.299105 -16.1123 14.1369 -4.70015e-05 -53.8455 9.87288 12.1155 6.97713e-07 -63.0867 -1.13665e-06 -0.909289 3.52507 -0.028 5.78381 0.154595 -19.2242 8.4221 -5.51291 -47.8857 -0 -0 49.2869 -2.47743e-05 -5.56931 -12.8279 -178.76 -1.22579e-07 -2.47516 -0.332874 10.6725 -31.5429 -0 -0 73.1613 -8.43375e-06 16.4128 -1.28954 -0.379798 2.39668e-06 -28.2966 
-48.612 80.081 3.9675 176.173 -88.2177 -154.197 0 -0 0 7.01492 -5.87207 16.0424 23.255 -9.11595 5.18535e-05 55.3193 2.38264 -5.89754 -9.5333e-07 68.2397 -6.45944e-07 -5.39379 6.3494 -0.299401 -16.0577 14.1405 -8.35271e-05 -53.9318 10.1586 12.5995 -7.8846e-07 -62.4136 4.77639e-07 -0.817497 3.50376 -0.0250002 5.85766 -0.034408 -18.9842 8.33312 -5.52447 -47.4493 -0 -0 48.9532 1.79853e-05 -5.62047 -13.0395 -178.728 7.65013e-07 -2.49216 -0.524833 10.4436 -33.0347 -0 -0 73.472 5.07265e-06 16.1949 -1.82992 -0.531406 -4.28309e-06 -27.8691 
-49.139 80.214 3.8893 172.899 -88.2142 -150.812 0 -0 0 6.80537 -5.51526 16.0434 23.0157 -9.00065 2.79488e-06 55.4814 2.8446 -5.30484 -6.7277e-07 68.9503 -9.79792e-07 -5.30771 6.38311 -0.296202 -15.9996 14.1465 -1.05638e-05 -54.0096 10.4647 13.0858 4.63263e-07 -61.7708 -7.74512e-07 -0.727795 3.47717 -0.0220996 5.94507 -0.234865 -18.7757 8.23722 -5.54308 -46.997 -0 -0 48.6285 2.892e-05 -5.66193 -13.2478 -178.699 1.64072e-07 -2.44628 -0.720844 10.1928 -34.5158 -0 -0 73.6939 5.7099e-06 15.9127 -2.32699 -0.663207 -7.09448e-06 -27.487 
-49.671 80.339 3.8143 169.688 -88.1786 -147.518 0 -0 0 6.58429 -5.16003 16.0518 22.7649 -8.90606 -1.70379e-05 55.616 3.27672 -4.68208 -9.94243e-07 69.6963 -1.42793e-06 -5.18327 6.40039 -0.290005 -15.9426 14.1572 -2.91303e-05 -54.0784 10.7875 13.5795 0 -61.1533 0 -0.64211 3.44634 -0.0193006 6.04316 -0.443494 -18.5971 8.13604 -5.5667 -46.5331 -0 -0 48.3191 -6.85996e-06 -5.6942 -13.4476 -178.672 9.85831e-07 -2.33211 -0.919208 9.9243 -35.9851 -0 -0 73.8239 -1.1866e-05 15.6017 -2.79849 -0.781104 -1.91643e-06 -27.164 
-50.209 80.455 3.743 166.556 -88.1411 -144.322 0 -0 0 6.3547 -4.80849 16.0684 22.5071 -8.83114 -7.09791e-05 55.7172 3.68244 -4.03601 -1.04312e-06 70.4727 -7.36832e-07 -5.02781 6.40238 -0.281401 -15.8879 14.1749 -4.04582e-05 -54.1369 11.1255 14.0823 6.19219e-07 -60.5569 -1.06059e-06 -0.564711 3.41264 -0.0168007 6.14786 -0.655585 -18.4472 8.02985 -5.59567 -46.055 -0 -0 48.0268 2.81336e-05 -5.71717 -13.6407 -178.648 -1.17657e-06 -2.1568 -1.11904 9.64434 -37.4354 -0 -0 73.8619 1.69367e-05 15.2922 -3.25915 -0.890616 4.61827e-06 -26.9146 
-50.755 80.563 3.6754 163.636 -88.1002 -141.353 0 -0 0 6.12102 -4.46241 16.0965 22.2422 -8.77258 1.82176e-05 55.7823 4.0639 -3.37755 -1.08062e-06 71.2728 -7.7469e-07 -4.84612 6.38852 -0.270595 -15.8408 14.1927 -1.30482e-05 -54.1891 11.4825 14.585 0 -59.9799 0 -0.503398 3.37829 -0.0147998 6.25364 -0.866365 -18.3264 7.92104 -5.63026 -45.5638 -0 -0 47.7532 -2.67513e-05 -5.73089 -13.8269 -178.626 -9.51202e-07 -1.93749 -1.31943 9.36127 -38.8623 -0 -0 73.8028 -1.57738e-05 15.0096 -3.72816 -0.998796 -1.11154e-08 -26.6563 
-51.307 80.664 3.6121 160.939 -88.0568 -138.627 0 -0 0 5.88573 -4.12514 16.1334 21.9749 -8.72942 -1.20921e-05 55.8081 4.42474 -2.70933 -0 72.0887 -0 -4.65205 6.36039 -0.258597 -15.8014 14.2224 -6.04973e-05 -54.2307 11.8471 15.0953 0 -59.4177 0 -0.460591 3.34665 -0.0134998 6.3554 -1.06945 -18.2328 7.81119 -5.67202 -45.0626 -0 -0 47.5031 -2.24098e-05 -5.73616 -14.0108 -178.607 4.70055e-08 -1.67963 -1.52168 9.08023 -40.2657 -0 -0 73.6463 3.24852e-06 14.7665 -4.19809 -1.10539 -4.24413e-06 -26.4633 
-51.866 80.758 3.553 158.411 -88.0425 -136.074 0 -0 0 5.65164 -3.79787 16.1782 21.7097 -8.69886 -1.77365e-05 55.7914 4.76655 -2.0404 -1.1691e-06 72.9199 -8.63855e-07 -4.45084 6.31806 -0.245795 -15.7743 14.258 -8.1024e-05 -54.2665 12.2203 15.6043 0 -58.864 0 -0.444206 3.32003 -0.0129004 6.44726 -1.26021 -18.1642 7.70295 -5.72333 -44.552 -0 -0 47.2725 1.72403e-05 -5.73371 -14.197 -178.589 9.79128e-07 -1.40045 -1.72564 8.80867 -41.6422 -0 -0 73.3916 -2.65693e-06 14.57 -4.66761 -1.21168 -2.17105e-06 -26.3292 
-52.433 80.845 3.4982 156.135 -87.9926 -133.8 0 -0 0 5.42001 -3.4827 16.2311 21.4495 -8.6784 1.30708e-05 55.7334 5.09104 -1.37802 -1.2958e-06 73.7627 -1.72701e-06 -4.2494 6.26123 -0.232504 -15.7583 14.301 3.0396e-05 -54.2966 12.6005 16.1056 0 -58.317 0 -0.4599 3.30194 -0.0133001 6.52493 -1.43361 -18.118 7.59872 -5.78694 -44.034 -0 -0 47.0636 1.99231e-05 -5.7236 -14.3888 -178.573 -4.02411e-07 -1.11638 -1.93371 8.55349 -42.9946 -0 -0 73.0398 1.39842e-05 14.4187 -5.12564 -1.31593 1.2149e-06 -26.2195 
